<svg xmlns="http://www.w3.org/2000/svg" xmlns:xlink="http://www.w3.org/1999/xlink" xmlns:lucid="lucid" width="3363" height="2644.5"><g transform="translate(181.5 821.5)" lucid:page-tab-id="0_0"><path d="M-155 805h1590M-155 685h1590M1441.5 168.5v510M1441.5 811.5v467M1445 1285h470M1921.5 1288.5V1665M1921.5 1676.5h1107M1601.5-471.5v1590M1605 1125h1270M2085 1282h790M2085 1516.5h790M2078.5 1288.5V1515M2878.5 1285.5V1515M3041.5 808.5V1675M2878.5 808.5v310M2885 805h150M1441.5-791.5v790M45 162h1393M45 5h1393M1598.5-793v151.5M1605-475h630M1605-638h627.25" stroke="#5e5e5e" stroke-width="10" stroke-linecap="round" fill="none"/><path d="M-160 566a6 6 0 0 1 6-6H-6a6 6 0 0 1 6 6v108a6 6 0 0 1-6 6h-148a6 6 0 0 1-6-6z" stroke="#5e5e5e" stroke-width="3" fill="#ffe342"/><use xlink:href="#a" transform="matrix(1,0,0,1,-148,572) translate(21.37654320987655 54.888888888888886)"/><path d="M40 566a6 6 0 0 1 6-6h1308a6 6 0 0 1 6 6v108a6 6 0 0 1-6 6H46a6 6 0 0 1-6-6z" stroke="#5e5e5e" stroke-width="3" fill="#6db1ff"/><use xlink:href="#b" transform="matrix(1,0,0,1,45,565) translate(608.7222222222223 62.701388888888886)"/><path d="M720 816a6 6 0 0 1 6-6h388a6 6 0 0 1 6 6v98a6 6 0 0 1-6 6H726a6 6 0 0 1-6-6z" stroke="#5e5e5e" stroke-width="3" fill="#6db1ff"/><use xlink:href="#c" transform="matrix(1,0,0,1,725,815.0000000000002) translate(148.72222222222223 56.138888888888886)"/><path d="M1160.25 816a6 6 0 0 1 6-6H1394a6 6 0 0 1 6 6v108a6 6 0 0 1-6 6h-227.75a6 6 0 0 1-6-6z" stroke="#5e5e5e" stroke-width="3" fill="#ffe342"/><use xlink:href="#d" transform="matrix(1,0,0,1,1172.2499999999995,822.0000000000002) translate(61.37654320987655 54.888888888888886)"/><path d="M1320 173a6 6 0 0 1 6-6h104.5a6 6 0 0 1 6 6v381a6 6 0 0 1-6 6H1326a6 6 0 0 1-6-6z" stroke="#5e5e5e" stroke-width="3" fill="#6db1ff"/><use xlink:href="#e" transform="matrix(1,0,0,1,1325,172.00000000000006) translate(7.222222222222236 198.43576388888889)"/><path d="M80 169.5a6 6 0 0 1 6-6h528a6 6 0 0 1 6 6v108a6 6 0 0 1-6 6H86a6 6 0 0 1-6-6z" stroke="#5e5e5e" stroke-width="3" fill="#ffe342"/><use xlink:href="#f" transform="matrix(1,0,0,1,92,175.50000000000006) translate(211.37654320987656 54.888888888888886)"/><path d="M600-114a6 6 0 0 1 6-6h148a6 6 0 0 1 6 6V-6a6 6 0 0 1-6 6H606a6 6 0 0 1-6-6z" stroke="#5e5e5e" stroke-width="3" fill="#6db1ff"/><use xlink:href="#g" transform="matrix(1,0,0,1,605,-115) translate(28.722222222222236 62.701388888888886)"/><path d="M780-114a6 6 0 0 1 6-6h328a6 6 0 0 1 6 6V-6a6 6 0 0 1-6 6H786a6 6 0 0 1-6-6z" stroke="#5e5e5e" stroke-width="3" fill="#ffe342"/><use xlink:href="#h" transform="matrix(1,0,0,1,792,-108) translate(111.37654320987656 54.888888888888886)"/><path d="M1140-114a6 6 0 0 1 6-6h248a6 6 0 0 1 6 6V-6a6 6 0 0 1-6 6h-248a6 6 0 0 1-6-6z" stroke="#5e5e5e" stroke-width="3" fill="#6db1ff"/><use xlink:href="#i" transform="matrix(1,0,0,1,1145,-115) translate(78.72222222222223 62.701388888888886)"/><path d="M1320-754a6 6 0 0 1 6-6h104.5a6 6 0 0 1 6 6v628a6 6 0 0 1-6 6H1326a6 6 0 0 1-6-6z" stroke="#5e5e5e" stroke-width="3" fill="#6db1ff"/><use xlink:href="#j" transform="matrix(1,0,0,1,1325,-755) translate(7.222222222222236 320.2013888888889)"/><path d="M1606.5-794a6 6 0 0 1 6-6H1714a6 6 0 0 1 6 6v128a6 6 0 0 1-6 6h-101.5a6 6 0 0 1-6-6z" stroke="#5e5e5e" stroke-width="3" fill="#ffe342"/><use xlink:href="#k" transform="matrix(1,0,0,1,1618.5000000000036,-788) translate(-1.6234567901234485 64.22222222222223)"/><path d="M1733.5-757a6 6 0 0 1 6-6H2214a6 6 0 0 1 6 6v108a6 6 0 0 1-6 6h-474.5a6 6 0 0 1-6-6z" stroke="#5e5e5e" stroke-width="3" fill="#ffe342"/><use xlink:href="#l" transform="matrix(1,0,0,1,1745.5,-751) translate(184.87654320987656 54.888888888888886)"/><path d="M2083.5-464a6 6 0 0 1 6-6h141.75a6 6 0 0 1 6 6v108a6 6 0 0 1-6 6H2089.5a6 6 0 0 1-6-6z" stroke="#5e5e5e" stroke-width="3" fill="#ffe342"/><use xlink:href="#m" transform="matrix(1,0,0,1,2095.5,-458) translate(18.37654320987655 54.888888888888886)"/><path d="M1740-464a6 6 0 0 1 6-6h301.75a6 6 0 0 1 6 6v108a6 6 0 0 1-6 6H1746a6 6 0 0 1-6-6z" stroke="#5e5e5e" stroke-width="3" fill="#ffe342"/><use xlink:href="#n" transform="matrix(1,0,0,1,1752,-458) translate(98.37654320987656 54.888888888888886)"/><path d="M1603.5-464a6 6 0 0 1 6-6H1711a6 6 0 0 1 6 6v118a6 6 0 0 1-6 6h-101.5a6 6 0 0 1-6-6z" stroke="#5e5e5e" stroke-width="3" fill="#ffe342"/><use xlink:href="#o" transform="matrix(1,0,0,1,1615.5000000000002,-458) translate(-1.6234567901234485 59.22222222222222)"/><path d="M1606.5-314a6 6 0 0 1 6-6H1714a6 6 0 0 1 6 6v288a6 6 0 0 1-6 6h-101.5a6 6 0 0 1-6-6z" stroke="#5e5e5e" stroke-width="3" fill="#ffe342"/><use xlink:href="#p" transform="matrix(1,0,0,1,1618.5000000000036,-308) translate(-10.265432098765423 144.22222222222223)"/><path d="M1606.5 6a6 6 0 0 1 6-6h98.5a6 6 0 0 1 6 6v66.5a6 6 0 0 1-6 6h-98.5a6 6 0 0 1-6-6z" stroke="#5e5e5e" stroke-width="3" fill="#6db1ff"/><use xlink:href="#q" transform="matrix(1,0,0,1,1611.5000000000036,5) translate(4.222222222222236 39.982638888888886)"/><path d="M1606.5 106a6 6 0 0 1 6-6H1714a6 6 0 0 1 6 6v248a6 6 0 0 1-6 6h-101.5a6 6 0 0 1-6-6z" stroke="#5e5e5e" stroke-width="3" fill="#ffe342"/><use xlink:href="#r" transform="matrix(1,0,0,1,1618.5000000000036,112) translate(-9.401234567901227 124.22222222222223)"/><path d="M1603.5 387.5a6 6 0 0 1 6-6H1711a6 6 0 0 1 6 6V454a6 6 0 0 1-6 6h-101.5a6 6 0 0 1-6-6z" stroke="#5e5e5e" stroke-width="3" fill="#6db1ff"/><use xlink:href="#s" transform="matrix(1,0,0,1,1608.5000000000002,386.5) translate(5.722222222222236 39.982638888888886)"/><path d="M1606.5 486a6 6 0 0 1 6-6H1714a6 6 0 0 1 6 6v188a6 6 0 0 1-6 6h-101.5a6 6 0 0 1-6-6z" stroke="#5e5e5e" stroke-width="3" fill="#ffe342"/><use xlink:href="#t" transform="matrix(1,0,0,1,1618.5000000000036,492) translate(-10.265432098765423 94.22222222222223)"/><path d="M1606.5 706a6 6 0 0 1 6-6H1714a6 6 0 0 1 6 6v66.5a6 6 0 0 1-6 6h-101.5a6 6 0 0 1-6-6z" stroke="#5e5e5e" stroke-width="3" fill="#6db1ff"/><use xlink:href="#u" transform="matrix(1,0,0,1,1611.5000000000036,705) translate(5.722222222222236 39.982638888888886)"/><path d="M1603.5 816a6 6 0 0 1 6-6H1711a6 6 0 0 1 6 6v278a6 6 0 0 1-6 6h-101.5a6 6 0 0 1-6-6z" stroke="#5e5e5e" stroke-width="3" fill="#ffe342"/><use xlink:href="#v" transform="matrix(1,0,0,1,1615.5000000000002,822.0000000000002) translate(-10.265432098765423 139.22222222222223)"/><path d="M1320 966a6 6 0 0 1 6-6h101.5a6 6 0 0 1 6 6v278a6 6 0 0 1-6 6H1326a6 6 0 0 1-6-6z" stroke="#5e5e5e" stroke-width="3" fill="#ffe342"/><use xlink:href="#w" transform="matrix(1,0,0,1,1332,972) translate(-10.265432098765423 139.22222222222223)"/><path d="M1516.5 1296a6 6 0 0 1 6-6h351.25a6 6 0 0 1 6 6v108a6 6 0 0 1-6 6H1522.5a6 6 0 0 1-6-6z" stroke="#5e5e5e" stroke-width="3" fill="#ffe342"/><use xlink:href="#x" transform="matrix(1,0,0,1,1528.4999999999982,1302) translate(114.73456790123458 54.888888888888886)"/><path d="M2083.5 1397.5a6 6 0 0 1 6-6H2394a6 6 0 0 1 6 6v108a6 6 0 0 1-6 6h-304.5a6 6 0 0 1-6-6z" stroke="#5e5e5e" stroke-width="3" fill="#ffe342"/><use xlink:href="#y" transform="matrix(1,0,0,1,2095.5,1403.5) translate(91.23456790123458 54.888888888888886)"/><path d="M2002.13 1687.5a6 6 0 0 1 6-6H2954a6 6 0 0 1 6 6v108a6 6 0 0 1-6 6h-945.88a6 6 0 0 1-6-6z" stroke="#5e5e5e" stroke-width="3" fill="#ffe342"/><use xlink:href="#z" transform="matrix(1,0,0,1,2014.125,1693.5000000000002) translate(411.7345679012346 54.888888888888886)"/><path d="M3046.5 1286.5a6 6 0 0 1 6-6H3154a6 6 0 0 1 6 6v278a6 6 0 0 1-6 6h-101.5a6 6 0 0 1-6-6z" stroke="#5e5e5e" stroke-width="3" fill="#ffe342"/><use xlink:href="#A" transform="matrix(1,0,0,1,3058.499999999999,1292.5) translate(-10.265432098765423 139.22222222222223)"/><path d="M3046.5 846a6 6 0 0 1 6-6H3154a6 6 0 0 1 6 6v278a6 6 0 0 1-6 6h-101.5a6 6 0 0 1-6-6z" stroke="#5e5e5e" stroke-width="3" fill="#ffe342"/><use xlink:href="#B" transform="matrix(1,0,0,1,3058.499999999999,852) translate(-10.265432098765423 139.22222222222223)"/><path d="M2760 1293a6 6 0 0 1 6-6h101.5a6 6 0 0 1 6 6v212.5a6 6 0 0 1-6 6H2766a6 6 0 0 1-6-6z" stroke="#5e5e5e" stroke-width="3" fill="#6db1ff"/><use xlink:href="#C" transform="matrix(1,0,0,1,2765,1292) translate(-2.919753086419739 113.72222222222223)"/><path d="M2760 848.75a6 6 0 0 1 6-6h101.5a6 6 0 0 1 6 6v212.5a6 6 0 0 1-6 6H2766a6 6 0 0 1-6-6z" stroke="#5e5e5e" stroke-width="3" fill="#6db1ff"/><use xlink:href="#D" transform="matrix(1,0,0,1,2765.0000000000027,847.7500000000001) translate(-2.055555555555543 113.72222222222223)"/><path d="M540 687a6 6 0 0 1 6-6h528a6 6 0 0 1 6 6v126a6 6 0 0 1-6 6H546a6 6 0 0 1-6-6z" stroke="#000" stroke-opacity="0" stroke-width="3" fill="#fff" fill-opacity="0"/><use xlink:href="#E" transform="matrix(1,0,0,1,545,686) translate(90.33333333333346 74.66666666666663)"/><use xlink:href="#F" transform="matrix(1,0,0,1,545,686) translate(232.40740740740742 74.66666666666663)"/><path d="M400 20.5a6 6 0 0 1 6-6h748a6 6 0 0 1 6 6v126a6 6 0 0 1-6 6H406a6 6 0 0 1-6-6z" stroke="#000" stroke-opacity="0" stroke-width="3" fill="#fff" fill-opacity="0"/><use xlink:href="#E" transform="matrix(1,0,0,1,405,19.500000000000057) translate(170.9259259259261 74.66666666666663)"/><use xlink:href="#G" transform="matrix(1,0,0,1,405,19.500000000000057) translate(313.00000000000006 74.66666666666663)"/><path d="M1557.83-60a6 6 0 0 1 6 6v648a6 6 0 0 1-6 6h-72.66a6 6 0 0 1-6-6V-54a6 6 0 0 1 6-6z" stroke="#000" stroke-opacity="0" stroke-width="3" fill="#fff" fill-opacity="0"/><use xlink:href="#H" transform="matrix(6.123233995736766e-17,1,-1,6.123233995736766e-17,1558.833333333334,-55) translate(128.33333333333346 47.35416666666663)"/><use xlink:href="#I" transform="matrix(6.123233995736766e-17,1,-1,6.123233995736766e-17,1558.833333333334,-55) translate(311.5925925925926 47.35416666666663)"/><path d="M2040 1140.5a6 6 0 0 1 6-6h388a6 6 0 0 1 6 6v126a6 6 0 0 1-6 6h-388a6 6 0 0 1-6-6z" stroke="#000" stroke-opacity="0" stroke-width="3" fill="#fff" fill-opacity="0"/><use xlink:href="#E" transform="matrix(1,0,0,1,2045,1139.5) translate(31.370370370370495 74.66666666666663)"/><use xlink:href="#J" transform="matrix(1,0,0,1,2045,1139.5) translate(173.44444444444446 74.66666666666663)"/><path d="M2180 1539.33a6 6 0 0 1 6-6h473a6 6 0 0 1 6 6v126a6 6 0 0 1-6 6h-473a6 6 0 0 1-6-6z" stroke="#000" stroke-opacity="0" stroke-width="3" fill="#fff" fill-opacity="0"/><use xlink:href="#E" transform="matrix(1,0,0,1,2185,1538.333333333333) translate(14.31481481481498 74.66666666666663)"/><use xlink:href="#K" transform="matrix(1,0,0,1,2185,1538.333333333333) translate(156.38888888888894 74.66666666666663)"/><g><path d="M2996.33 991.5a6 6 0 0 1 6 6v508a6 6 0 0 1-6 6h-72.66a6 6 0 0 1-6-6v-508a6 6 0 0 1 6-6z" stroke="#000" stroke-opacity="0" stroke-width="3" fill="#fff" fill-opacity="0"/></g><g><use xlink:href="#E" transform="matrix(6.123233995736766e-17,1,-1,6.123233995736766e-17,2997.3333333333335,996.5) translate(31.81481481481498 47.35416666666663)"/><use xlink:href="#K" transform="matrix(6.123233995736766e-17,1,-1,6.123233995736766e-17,2997.3333333333335,996.5) translate(173.88888888888894 47.35416666666663)"/></g><path d="M1620-619.5a6 6 0 0 1 6-6h451.5a6 6 0 0 1 6 6v126a6 6 0 0 1-6 6H1626a6 6 0 0 1-6-6z" stroke="#000" stroke-opacity="0" stroke-width="3" fill="#fff" fill-opacity="0"/><g><use xlink:href="#E" transform="matrix(1,0,0,1,1625,-620.5) translate(61.44444444444457 74.66666666666663)"/><use xlink:href="#L" transform="matrix(1,0,0,1,1625,-620.5) translate(203.51851851851853 74.66666666666663)"/></g><defs><path d="M67-125c0 54 23 88 75 88 28 0 53-7 68-21v-34h-60v-39h108v91C232-14 192 4 140 4 58 4 20-42 15-125 8-236 126-280 215-234c19 10 29 26 37 47l-47 15c-11-23-29-39-63-39-53 1-75 33-75 86" id="M"/><path d="M14-72v-43h91v43H14" id="N"/><path d="M24-248c93 1 206-16 204 79-1 75-69 88-152 82V0H24v-248zm52 121c47 0 100 7 100-41 0-47-54-39-100-39v80" id="O"/><path d="M23 0v-37h61v-169l-59 37v-38l62-41h46v211h57V0H23" id="P"/><g id="a"><use transform="matrix(0.08641975308641973,0,0,0.08641975308641973,0,0)" xlink:href="#M"/><use transform="matrix(0.08641975308641973,0,0,0.08641975308641973,24.197530864197525,0)" xlink:href="#N"/><use transform="matrix(0.08641975308641973,0,0,0.08641975308641973,34.481481481481474,0)" xlink:href="#O"/><use transform="matrix(0.08641975308641973,0,0,0.08641975308641973,55.22222222222221,0)" xlink:href="#O"/><use transform="matrix(0.08641975308641973,0,0,0.08641975308641973,75.96296296296295,0)" xlink:href="#P"/></g><path d="M199 0l-22-63H83L61 0H9l90-248h61L250 0h-51zm-33-102l-36-108c-10 38-24 72-36 108h72" id="Q"/><g id="b"><use transform="matrix(0.08641975308641973,0,0,0.08641975308641973,0,0)" xlink:href="#M"/><use transform="matrix(0.08641975308641973,0,0,0.08641975308641973,24.197530864197525,0)" xlink:href="#N"/><use transform="matrix(0.08641975308641973,0,0,0.08641975308641973,34.481481481481474,0)" xlink:href="#O"/><use transform="matrix(0.08641975308641973,0,0,0.08641975308641973,52.888888888888864,0)" xlink:href="#Q"/><use transform="matrix(0.08641975308641973,0,0,0.08641975308641973,75.27160493827158,0)" xlink:href="#P"/></g><path d="M182-182c0 78-84 86-111 141h115V0H12c-6-101 99-100 120-180 1-22-12-31-33-32-23 0-32 14-35 34l-49-3c5-45 32-70 84-70 51 0 83 22 83 69" id="R"/><g id="c"><use transform="matrix(0.08641975308641973,0,0,0.08641975308641973,0,0)" xlink:href="#M"/><use transform="matrix(0.08641975308641973,0,0,0.08641975308641973,24.197530864197525,0)" xlink:href="#N"/><use transform="matrix(0.08641975308641973,0,0,0.08641975308641973,34.481481481481474,0)" xlink:href="#O"/><use transform="matrix(0.08641975308641973,0,0,0.08641975308641973,52.888888888888864,0)" xlink:href="#Q"/><use transform="matrix(0.08641975308641973,0,0,0.08641975308641973,75.27160493827158,0)" xlink:href="#R"/></g><g id="d"><use transform="matrix(0.08641975308641973,0,0,0.08641975308641973,0,0)" xlink:href="#M"/><use transform="matrix(0.08641975308641973,0,0,0.08641975308641973,24.197530864197525,0)" xlink:href="#N"/><use transform="matrix(0.08641975308641973,0,0,0.08641975308641973,34.481481481481474,0)" xlink:href="#O"/><use transform="matrix(0.08641975308641973,0,0,0.08641975308641973,55.22222222222221,0)" xlink:href="#O"/><use transform="matrix(0.08641975308641973,0,0,0.08641975308641973,75.96296296296295,0)" xlink:href="#R"/></g><path d="M128-127c34 4 56 21 59 58 7 91-148 94-172 28-4-9-6-17-7-26l51-5c1 24 16 35 40 36 23 0 39-12 38-36-1-31-31-36-65-34v-40c32 2 59-3 59-33 0-20-13-33-34-33s-33 13-35 32l-50-3c6-44 37-68 86-68 50 0 83 20 83 66 0 35-22 52-53 58" id="S"/><g id="e"><use transform="matrix(0.08641975308641973,0,0,0.08641975308641973,0,0)" xlink:href="#M"/><use transform="matrix(0.08641975308641973,0,0,0.08641975308641973,24.197530864197525,0)" xlink:href="#N"/><use transform="matrix(0.08641975308641973,0,0,0.08641975308641973,34.481481481481474,0)" xlink:href="#O"/><use transform="matrix(0.08641975308641973,0,0,0.08641975308641973,52.888888888888864,0)" xlink:href="#Q"/><use transform="matrix(0.08641975308641973,0,0,0.08641975308641973,75.27160493827158,0)" xlink:href="#S"/></g><g id="f"><use transform="matrix(0.08641975308641973,0,0,0.08641975308641973,0,0)" xlink:href="#M"/><use transform="matrix(0.08641975308641973,0,0,0.08641975308641973,24.197530864197525,0)" xlink:href="#N"/><use transform="matrix(0.08641975308641973,0,0,0.08641975308641973,34.481481481481474,0)" xlink:href="#O"/><use transform="matrix(0.08641975308641973,0,0,0.08641975308641973,55.22222222222221,0)" xlink:href="#O"/><use transform="matrix(0.08641975308641973,0,0,0.08641975308641973,75.96296296296295,0)" xlink:href="#S"/></g><path d="M165-50V0h-47v-50H5v-38l105-160h55v161h33v37h-33zm-47-37l2-116L46-87h72" id="T"/><g id="g"><use transform="matrix(0.08641975308641973,0,0,0.08641975308641973,0,0)" xlink:href="#M"/><use transform="matrix(0.08641975308641973,0,0,0.08641975308641973,24.197530864197525,0)" xlink:href="#N"/><use transform="matrix(0.08641975308641973,0,0,0.08641975308641973,34.481481481481474,0)" xlink:href="#O"/><use transform="matrix(0.08641975308641973,0,0,0.08641975308641973,52.888888888888864,0)" xlink:href="#Q"/><use transform="matrix(0.08641975308641973,0,0,0.08641975308641973,75.27160493827158,0)" xlink:href="#T"/></g><g id="h"><use transform="matrix(0.08641975308641973,0,0,0.08641975308641973,0,0)" xlink:href="#M"/><use transform="matrix(0.08641975308641973,0,0,0.08641975308641973,24.197530864197525,0)" xlink:href="#N"/><use transform="matrix(0.08641975308641973,0,0,0.08641975308641973,34.481481481481474,0)" xlink:href="#O"/><use transform="matrix(0.08641975308641973,0,0,0.08641975308641973,55.22222222222221,0)" xlink:href="#O"/><use transform="matrix(0.08641975308641973,0,0,0.08641975308641973,75.96296296296295,0)" xlink:href="#T"/></g><path d="M139-81c0-46-55-55-73-27H18l9-140h149v37H72l-4 63c44-38 133-4 122 66C201 21 21 35 11-62l49-4c5 18 15 30 39 30 26 0 40-18 40-45" id="U"/><g id="i"><use transform="matrix(0.08641975308641973,0,0,0.08641975308641973,0,0)" xlink:href="#M"/><use transform="matrix(0.08641975308641973,0,0,0.08641975308641973,24.197530864197525,0)" xlink:href="#N"/><use transform="matrix(0.08641975308641973,0,0,0.08641975308641973,34.481481481481474,0)" xlink:href="#O"/><use transform="matrix(0.08641975308641973,0,0,0.08641975308641973,52.888888888888864,0)" xlink:href="#Q"/><use transform="matrix(0.08641975308641973,0,0,0.08641975308641973,75.27160493827158,0)" xlink:href="#U"/></g><path d="M115-159c48 0 72 30 72 78 0 54-30 85-83 85-64 0-91-50-91-122 0-98 58-163 141-120 15 8 21 24 27 44l-47 6c-5-31-48-31-61-4-7 14-11 33-11 60 9-17 28-27 53-27zM102-35c24 0 36-20 36-45s-11-43-37-43c-23 0-36 14-36 38 0 27 11 50 37 50" id="V"/><g id="j"><use transform="matrix(0.08641975308641973,0,0,0.08641975308641973,0,0)" xlink:href="#M"/><use transform="matrix(0.08641975308641973,0,0,0.08641975308641973,24.197530864197525,0)" xlink:href="#N"/><use transform="matrix(0.08641975308641973,0,0,0.08641975308641973,34.481481481481474,0)" xlink:href="#O"/><use transform="matrix(0.08641975308641973,0,0,0.08641975308641973,52.888888888888864,0)" xlink:href="#Q"/><use transform="matrix(0.08641975308641973,0,0,0.08641975308641973,75.27160493827158,0)" xlink:href="#V"/></g><g id="k"><use transform="matrix(0.08641975308641973,0,0,0.08641975308641973,0,0)" xlink:href="#M"/><use transform="matrix(0.08641975308641973,0,0,0.08641975308641973,24.197530864197525,0)" xlink:href="#N"/><use transform="matrix(0.08641975308641973,0,0,0.08641975308641973,34.481481481481474,0)" xlink:href="#O"/><use transform="matrix(0.08641975308641973,0,0,0.08641975308641973,55.22222222222221,0)" xlink:href="#O"/><use transform="matrix(0.08641975308641973,0,0,0.08641975308641973,75.96296296296295,0)" xlink:href="#U"/></g><g id="l"><use transform="matrix(0.08641975308641973,0,0,0.08641975308641973,0,0)" xlink:href="#M"/><use transform="matrix(0.08641975308641973,0,0,0.08641975308641973,24.197530864197525,0)" xlink:href="#N"/><use transform="matrix(0.08641975308641973,0,0,0.08641975308641973,34.481481481481474,0)" xlink:href="#O"/><use transform="matrix(0.08641975308641973,0,0,0.08641975308641973,55.22222222222221,0)" xlink:href="#O"/><use transform="matrix(0.08641975308641973,0,0,0.08641975308641973,75.96296296296295,0)" xlink:href="#V"/></g><path d="M52 0c1-96 47-148 87-207H15v-41h169v40c-36 62-79 113-81 208H52" id="W"/><g id="m"><use transform="matrix(0.08641975308641973,0,0,0.08641975308641973,0,0)" xlink:href="#M"/><use transform="matrix(0.08641975308641973,0,0,0.08641975308641973,24.197530864197525,0)" xlink:href="#N"/><use transform="matrix(0.08641975308641973,0,0,0.08641975308641973,34.481481481481474,0)" xlink:href="#O"/><use transform="matrix(0.08641975308641973,0,0,0.08641975308641973,55.22222222222221,0)" xlink:href="#O"/><use transform="matrix(0.08641975308641973,0,0,0.08641975308641973,75.96296296296295,0)" xlink:href="#W"/></g><path d="M138-131c27 9 52 24 51 61 0 53-36 74-89 74S11-19 11-69c0-35 22-54 51-61-78-25-46-121 38-121 51 0 83 19 83 66 0 30-18 49-45 54zm-38-16c24 0 32-13 32-36 1-23-11-34-32-34-22 0-33 12-32 34 0 22 9 36 32 36zm1 116c27 0 37-17 37-43 0-25-13-39-39-39-24 0-37 15-37 40 0 27 11 42 39 42" id="X"/><g id="n"><use transform="matrix(0.08641975308641973,0,0,0.08641975308641973,0,0)" xlink:href="#M"/><use transform="matrix(0.08641975308641973,0,0,0.08641975308641973,24.197530864197525,0)" xlink:href="#N"/><use transform="matrix(0.08641975308641973,0,0,0.08641975308641973,34.481481481481474,0)" xlink:href="#O"/><use transform="matrix(0.08641975308641973,0,0,0.08641975308641973,55.22222222222221,0)" xlink:href="#O"/><use transform="matrix(0.08641975308641973,0,0,0.08641975308641973,75.96296296296295,0)" xlink:href="#X"/></g><path d="M99-251c69 0 84 53 88 123 5 99-61 162-144 118-15-8-21-25-26-45l46-6c4 31 50 33 63 7 7-15 12-36 12-60-9 18-29 28-54 28-48 0-72-32-72-82 0-55 31-83 87-83zm-1 128c24 0 37-16 37-39 0-27-10-51-37-51-25 0-35 19-35 45 0 25 10 45 35 45" id="Y"/><g id="o"><use transform="matrix(0.08641975308641973,0,0,0.08641975308641973,0,0)" xlink:href="#M"/><use transform="matrix(0.08641975308641973,0,0,0.08641975308641973,24.197530864197525,0)" xlink:href="#N"/><use transform="matrix(0.08641975308641973,0,0,0.08641975308641973,34.481481481481474,0)" xlink:href="#O"/><use transform="matrix(0.08641975308641973,0,0,0.08641975308641973,55.22222222222221,0)" xlink:href="#O"/><use transform="matrix(0.08641975308641973,0,0,0.08641975308641973,75.96296296296295,0)" xlink:href="#Y"/></g><path d="M101-251c68 0 84 54 84 127C185-50 166 4 99 4S15-52 14-124c-1-75 17-127 87-127zm-1 216c37-5 36-46 36-89s4-89-36-89c-39 0-36 45-36 89 0 43-3 85 36 89" id="Z"/><g id="p"><use transform="matrix(0.08641975308641973,0,0,0.08641975308641973,0,0)" xlink:href="#M"/><use transform="matrix(0.08641975308641973,0,0,0.08641975308641973,24.197530864197525,0)" xlink:href="#N"/><use transform="matrix(0.08641975308641973,0,0,0.08641975308641973,34.481481481481474,0)" xlink:href="#O"/><use transform="matrix(0.08641975308641973,0,0,0.08641975308641973,55.22222222222221,0)" xlink:href="#O"/><use transform="matrix(0.08641975308641973,0,0,0.08641975308641973,75.96296296296295,0)" xlink:href="#P"/><use transform="matrix(0.08641975308641973,0,0,0.08641975308641973,93.2469135802469,0)" xlink:href="#Z"/></g><g id="q"><use transform="matrix(0.08641975308641973,0,0,0.08641975308641973,0,0)" xlink:href="#M"/><use transform="matrix(0.08641975308641973,0,0,0.08641975308641973,24.197530864197525,0)" xlink:href="#N"/><use transform="matrix(0.08641975308641973,0,0,0.08641975308641973,34.481481481481474,0)" xlink:href="#O"/><use transform="matrix(0.08641975308641973,0,0,0.08641975308641973,52.888888888888864,0)" xlink:href="#Q"/><use transform="matrix(0.08641975308641973,0,0,0.08641975308641973,75.27160493827158,0)" xlink:href="#W"/></g><g id="r"><use transform="matrix(0.08641975308641973,0,0,0.08641975308641973,0,0)" xlink:href="#M"/><use transform="matrix(0.08641975308641973,0,0,0.08641975308641973,24.197530864197525,0)" xlink:href="#N"/><use transform="matrix(0.08641975308641973,0,0,0.08641975308641973,34.481481481481474,0)" xlink:href="#O"/><use transform="matrix(0.08641975308641973,0,0,0.08641975308641973,55.22222222222221,0)" xlink:href="#O"/><use transform="matrix(0.08641975308641973,0,0,0.08641975308641973,75.96296296296295,0)" xlink:href="#P"/><use transform="matrix(0.08641975308641973,0,0,0.08641975308641973,91.5185185185185,0)" xlink:href="#P"/></g><g id="s"><use transform="matrix(0.08641975308641973,0,0,0.08641975308641973,0,0)" xlink:href="#M"/><use transform="matrix(0.08641975308641973,0,0,0.08641975308641973,24.197530864197525,0)" xlink:href="#N"/><use transform="matrix(0.08641975308641973,0,0,0.08641975308641973,34.481481481481474,0)" xlink:href="#O"/><use transform="matrix(0.08641975308641973,0,0,0.08641975308641973,52.888888888888864,0)" xlink:href="#Q"/><use transform="matrix(0.08641975308641973,0,0,0.08641975308641973,75.27160493827158,0)" xlink:href="#X"/></g><g id="t"><use transform="matrix(0.08641975308641973,0,0,0.08641975308641973,0,0)" xlink:href="#M"/><use transform="matrix(0.08641975308641973,0,0,0.08641975308641973,24.197530864197525,0)" xlink:href="#N"/><use transform="matrix(0.08641975308641973,0,0,0.08641975308641973,34.481481481481474,0)" xlink:href="#O"/><use transform="matrix(0.08641975308641973,0,0,0.08641975308641973,55.22222222222221,0)" xlink:href="#O"/><use transform="matrix(0.08641975308641973,0,0,0.08641975308641973,75.96296296296295,0)" xlink:href="#P"/><use transform="matrix(0.08641975308641973,0,0,0.08641975308641973,93.2469135802469,0)" xlink:href="#R"/></g><g id="u"><use transform="matrix(0.08641975308641973,0,0,0.08641975308641973,0,0)" xlink:href="#M"/><use transform="matrix(0.08641975308641973,0,0,0.08641975308641973,24.197530864197525,0)" xlink:href="#N"/><use transform="matrix(0.08641975308641973,0,0,0.08641975308641973,34.481481481481474,0)" xlink:href="#O"/><use transform="matrix(0.08641975308641973,0,0,0.08641975308641973,52.888888888888864,0)" xlink:href="#Q"/><use transform="matrix(0.08641975308641973,0,0,0.08641975308641973,75.27160493827158,0)" xlink:href="#Y"/></g><g id="v"><use transform="matrix(0.08641975308641973,0,0,0.08641975308641973,0,0)" xlink:href="#M"/><use transform="matrix(0.08641975308641973,0,0,0.08641975308641973,24.197530864197525,0)" xlink:href="#N"/><use transform="matrix(0.08641975308641973,0,0,0.08641975308641973,34.481481481481474,0)" xlink:href="#O"/><use transform="matrix(0.08641975308641973,0,0,0.08641975308641973,55.22222222222221,0)" xlink:href="#O"/><use transform="matrix(0.08641975308641973,0,0,0.08641975308641973,75.96296296296295,0)" xlink:href="#P"/><use transform="matrix(0.08641975308641973,0,0,0.08641975308641973,93.2469135802469,0)" xlink:href="#S"/></g><g id="w"><use transform="matrix(0.08641975308641973,0,0,0.08641975308641973,0,0)" xlink:href="#M"/><use transform="matrix(0.08641975308641973,0,0,0.08641975308641973,24.197530864197525,0)" xlink:href="#N"/><use transform="matrix(0.08641975308641973,0,0,0.08641975308641973,34.481481481481474,0)" xlink:href="#O"/><use transform="matrix(0.08641975308641973,0,0,0.08641975308641973,55.22222222222221,0)" xlink:href="#O"/><use transform="matrix(0.08641975308641973,0,0,0.08641975308641973,75.96296296296295,0)" xlink:href="#P"/><use transform="matrix(0.08641975308641973,0,0,0.08641975308641973,93.2469135802469,0)" xlink:href="#T"/></g><g id="x"><use transform="matrix(0.08641975308641973,0,0,0.08641975308641973,0,0)" xlink:href="#M"/><use transform="matrix(0.08641975308641973,0,0,0.08641975308641973,24.197530864197525,0)" xlink:href="#N"/><use transform="matrix(0.08641975308641973,0,0,0.08641975308641973,34.481481481481474,0)" xlink:href="#O"/><use transform="matrix(0.08641975308641973,0,0,0.08641975308641973,55.22222222222221,0)" xlink:href="#O"/><use transform="matrix(0.08641975308641973,0,0,0.08641975308641973,75.96296296296295,0)" xlink:href="#P"/><use transform="matrix(0.08641975308641973,0,0,0.08641975308641973,93.2469135802469,0)" xlink:href="#U"/></g><g id="y"><use transform="matrix(0.08641975308641973,0,0,0.08641975308641973,0,0)" xlink:href="#M"/><use transform="matrix(0.08641975308641973,0,0,0.08641975308641973,24.197530864197525,0)" xlink:href="#N"/><use transform="matrix(0.08641975308641973,0,0,0.08641975308641973,34.481481481481474,0)" xlink:href="#O"/><use transform="matrix(0.08641975308641973,0,0,0.08641975308641973,55.22222222222221,0)" xlink:href="#O"/><use transform="matrix(0.08641975308641973,0,0,0.08641975308641973,75.96296296296295,0)" xlink:href="#P"/><use transform="matrix(0.08641975308641973,0,0,0.08641975308641973,93.2469135802469,0)" xlink:href="#V"/></g><g id="z"><use transform="matrix(0.08641975308641973,0,0,0.08641975308641973,0,0)" xlink:href="#M"/><use transform="matrix(0.08641975308641973,0,0,0.08641975308641973,24.197530864197525,0)" xlink:href="#N"/><use transform="matrix(0.08641975308641973,0,0,0.08641975308641973,34.481481481481474,0)" xlink:href="#O"/><use transform="matrix(0.08641975308641973,0,0,0.08641975308641973,55.22222222222221,0)" xlink:href="#O"/><use transform="matrix(0.08641975308641973,0,0,0.08641975308641973,75.96296296296295,0)" xlink:href="#P"/><use transform="matrix(0.08641975308641973,0,0,0.08641975308641973,93.2469135802469,0)" xlink:href="#W"/></g><g id="A"><use transform="matrix(0.08641975308641973,0,0,0.08641975308641973,0,0)" xlink:href="#M"/><use transform="matrix(0.08641975308641973,0,0,0.08641975308641973,24.197530864197525,0)" xlink:href="#N"/><use transform="matrix(0.08641975308641973,0,0,0.08641975308641973,34.481481481481474,0)" xlink:href="#O"/><use transform="matrix(0.08641975308641973,0,0,0.08641975308641973,55.22222222222221,0)" xlink:href="#O"/><use transform="matrix(0.08641975308641973,0,0,0.08641975308641973,75.96296296296295,0)" xlink:href="#P"/><use transform="matrix(0.08641975308641973,0,0,0.08641975308641973,93.2469135802469,0)" xlink:href="#X"/></g><g id="B"><use transform="matrix(0.08641975308641973,0,0,0.08641975308641973,0,0)" xlink:href="#M"/><use transform="matrix(0.08641975308641973,0,0,0.08641975308641973,24.197530864197525,0)" xlink:href="#N"/><use transform="matrix(0.08641975308641973,0,0,0.08641975308641973,34.481481481481474,0)" xlink:href="#O"/><use transform="matrix(0.08641975308641973,0,0,0.08641975308641973,55.22222222222221,0)" xlink:href="#O"/><use transform="matrix(0.08641975308641973,0,0,0.08641975308641973,75.96296296296295,0)" xlink:href="#P"/><use transform="matrix(0.08641975308641973,0,0,0.08641975308641973,93.2469135802469,0)" xlink:href="#Y"/></g><g id="C"><use transform="matrix(0.08641975308641973,0,0,0.08641975308641973,0,0)" xlink:href="#M"/><use transform="matrix(0.08641975308641973,0,0,0.08641975308641973,24.197530864197525,0)" xlink:href="#N"/><use transform="matrix(0.08641975308641973,0,0,0.08641975308641973,34.481481481481474,0)" xlink:href="#O"/><use transform="matrix(0.08641975308641973,0,0,0.08641975308641973,52.888888888888864,0)" xlink:href="#Q"/><use transform="matrix(0.08641975308641973,0,0,0.08641975308641973,75.27160493827158,0)" xlink:href="#P"/><use transform="matrix(0.08641975308641973,0,0,0.08641975308641973,92.55555555555553,0)" xlink:href="#Z"/></g><g id="D"><use transform="matrix(0.08641975308641973,0,0,0.08641975308641973,0,0)" xlink:href="#M"/><use transform="matrix(0.08641975308641973,0,0,0.08641975308641973,24.197530864197525,0)" xlink:href="#N"/><use transform="matrix(0.08641975308641973,0,0,0.08641975308641973,34.481481481481474,0)" xlink:href="#O"/><use transform="matrix(0.08641975308641973,0,0,0.08641975308641973,52.888888888888864,0)" xlink:href="#Q"/><use transform="matrix(0.08641975308641973,0,0,0.08641975308641973,75.27160493827158,0)" xlink:href="#P"/><use transform="matrix(0.08641975308641973,0,0,0.08641975308641973,90.82716049382714,0)" xlink:href="#P"/></g><path d="M67-125c0 53 21 87 73 88 37 1 54-22 65-47l45 17C233-25 199 4 140 4 58 4 20-42 15-125 8-235 124-281 211-232c18 10 29 29 36 50l-46 12c-8-25-30-41-62-41-52 0-71 34-72 86" id="aa"/><path d="M133-34C117-15 103 5 69 4 32 3 11-16 11-54c-1-60 55-63 116-61 1-26-3-47-28-47-18 1-26 9-28 27l-52-2c7-38 36-58 82-57s74 22 75 68l1 82c-1 14 12 18 25 15v27c-30 8-71 5-69-32zm-48 3c29 0 43-24 42-57-32 0-66-3-65 30 0 17 8 27 23 27" id="ab"/><path d="M25 0v-261h50V0H25" id="ac"/><path d="M185-48c-13 30-37 53-82 52C43 2 14-33 14-96s30-98 90-98c62 0 83 45 84 108H66c0 31 8 55 39 56 18 0 30-7 34-22zm-45-69c5-46-57-63-70-21-2 6-4 13-4 21h74" id="ad"/><g id="E"><use transform="matrix(0.14814814814814803,0,0,0.14814814814814803,0,0)" xlink:href="#aa"/><use transform="matrix(0.14814814814814803,0,0,0.14814814814814803,38.37037037037034,0)" xlink:href="#ab"/><use transform="matrix(0.14814814814814803,0,0,0.14814814814814803,67.99999999999994,0)" xlink:href="#ac"/><use transform="matrix(0.14814814814814803,0,0,0.14814814814814803,82.81481481481475,0)" xlink:href="#ac"/><use transform="matrix(0.14814814814814803,0,0,0.14814814814814803,97.62962962962956,0)" xlink:href="#ad"/></g><path d="M135-150c-39-12-60 13-60 57V0H25l-1-190h47c2 13-1 29 3 40 6-28 27-53 61-41v41" id="ae"/><path d="M190-63c-7 42-38 67-86 67-59 0-84-38-90-98-12-110 154-137 174-36l-49 2c-2-19-15-32-35-32-30 0-35 28-38 64-6 74 65 87 74 30" id="af"/><path d="M137-138c1-29-70-34-71-4 15 46 118 7 119 86 1 83-164 76-172 9l43-7c4 19 20 25 44 25 33 8 57-30 24-41C81-84 22-81 20-136c-2-80 154-74 161-7" id="ag"/><g id="F"><use transform="matrix(0.14814814814814803,0,0,0.14814814814814803,0,0)" xlink:href="#aa"/><use transform="matrix(0.14814814814814803,0,0,0.14814814814814803,38.37037037037034,0)" xlink:href="#ab"/><use transform="matrix(0.14814814814814803,0,0,0.14814814814814803,67.99999999999994,0)" xlink:href="#ae"/><use transform="matrix(0.14814814814814803,0,0,0.14814814814814803,88.74074074074066,0)" xlink:href="#ab"/><use transform="matrix(0.14814814814814803,0,0,0.14814814814814803,118.37037037037028,0)" xlink:href="#af"/><use transform="matrix(0.14814814814814803,0,0,0.14814814814814803,147.9999999999999,0)" xlink:href="#ab"/><use transform="matrix(0.14814814814814803,0,0,0.14814814814814803,177.62962962962953,0)" xlink:href="#ag"/></g><path d="M110-194c64 0 96 36 96 99 0 64-35 99-97 99-61 0-95-36-95-99 0-62 34-99 96-99zm-1 164c35 0 45-28 45-65 0-40-10-65-43-65-34 0-45 26-45 65 0 36 10 65 43 65" id="ah"/><path d="M25-224v-37h50v37H25zM25 0v-190h50V0H25" id="ai"/><path d="M135-194c87-1 58 113 63 194h-50c-7-57 23-157-34-157-59 0-34 97-39 157H25l-1-190h47c2 12-1 28 3 38 12-26 28-41 61-42" id="aj"/><path d="M115-3C79 11 28 4 28-45v-112H4v-33h27l15-45h31v45h36v33H77v99c-1 23 16 31 38 25v30" id="ak"/><g id="G"><use transform="matrix(0.14814814814814803,0,0,0.14814814814814803,0,0)" xlink:href="#aa"/><use transform="matrix(0.14814814814814803,0,0,0.14814814814814803,38.37037037037034,0)" xlink:href="#ah"/><use transform="matrix(0.14814814814814803,0,0,0.14814814814814803,70.81481481481475,0)" xlink:href="#ae"/><use transform="matrix(0.14814814814814803,0,0,0.14814814814814803,91.55555555555547,0)" xlink:href="#ae"/><use transform="matrix(0.14814814814814803,0,0,0.14814814814814803,112.29629629629619,0)" xlink:href="#ai"/><use transform="matrix(0.14814814814814803,0,0,0.14814814814814803,127.11111111111101,0)" xlink:href="#ad"/><use transform="matrix(0.14814814814814803,0,0,0.14814814814814803,156.7407407407406,0)" xlink:href="#aj"/><use transform="matrix(0.14814814814814803,0,0,0.14814814814814803,189.18518518518502,0)" xlink:href="#ak"/><use transform="matrix(0.14814814814814803,0,0,0.14814814814814803,206.81481481481464,0)" xlink:href="#ad"/><use transform="matrix(0.14814814814814803,0,0,0.14814814814814803,236.44444444444423,0)" xlink:href="#ag"/></g><path d="M85 4C-2 5 27-109 22-190h50c7 57-23 150 33 157 60-5 35-97 40-157h50l1 190h-47c-2-12 1-28-3-38-12 25-28 42-61 42" id="al"/><g id="H"><use transform="matrix(0.14814814814814803,0,0,0.14814814814814803,0,0)" xlink:href="#O"/><use transform="matrix(0.14814814814814803,0,0,0.14814814814814803,35.55555555555553,0)" xlink:href="#al"/><use transform="matrix(0.14814814814814803,0,0,0.14814814814814803,67.99999999999994,0)" xlink:href="#ad"/><use transform="matrix(0.14814814814814803,0,0,0.14814814814814803,97.62962962962955,0)" xlink:href="#ae"/><use transform="matrix(0.14814814814814803,0,0,0.14814814814814803,118.37037037037028,0)" xlink:href="#ak"/><use transform="matrix(0.14814814814814803,0,0,0.14814814814814803,135.9999999999999,0)" xlink:href="#ah"/></g><path d="M135-194c53 0 70 44 70 98 0 56-19 98-73 100-31 1-45-17-59-34 3 33 2 69 2 105H25l-1-265h48c2 10 0 23 3 31 11-24 29-35 60-35zM114-30c33 0 39-31 40-66 0-38-9-64-40-64-56 0-55 130 0 130" id="am"/><g id="I"><use transform="matrix(0.14814814814814803,0,0,0.14814814814814803,0,0)" xlink:href="#O"/><use transform="matrix(0.14814814814814803,0,0,0.14814814814814803,35.55555555555553,0)" xlink:href="#ae"/><use transform="matrix(0.14814814814814803,0,0,0.14814814814814803,56.29629629629625,0)" xlink:href="#ai"/><use transform="matrix(0.14814814814814803,0,0,0.14814814814814803,71.11111111111106,0)" xlink:href="#aj"/><use transform="matrix(0.14814814814814803,0,0,0.14814814814814803,103.55555555555549,0)" xlink:href="#af"/><use transform="matrix(0.14814814814814803,0,0,0.14814814814814803,133.1851851851851,0)" xlink:href="#ai"/><use transform="matrix(0.14814814814814803,0,0,0.14814814814814803,147.99999999999991,0)" xlink:href="#am"/><use transform="matrix(0.14814814814814803,0,0,0.14814814814814803,180.44444444444434,0)" xlink:href="#ad"/></g><path d="M136-208V0H84v-208H4v-40h212v40h-80" id="an"/><path d="M25-224v-37h50v37H25zM75 22c2 45-34 59-81 51V38c22 5 31-5 31-27v-201h50V22" id="ao"/><g id="J"><use transform="matrix(0.14814814814814803,0,0,0.14814814814814803,0,0)" xlink:href="#an"/><use transform="matrix(0.14814814814814803,0,0,0.14814814814814803,31.407407407407383,0)" xlink:href="#ai"/><use transform="matrix(0.14814814814814803,0,0,0.14814814814814803,46.222222222222186,0)" xlink:href="#ao"/><use transform="matrix(0.14814814814814803,0,0,0.14814814814814803,61.03703703703699,0)" xlink:href="#al"/><use transform="matrix(0.14814814814814803,0,0,0.14814814814814803,93.48148148148141,0)" xlink:href="#ab"/><use transform="matrix(0.14814814814814803,0,0,0.14814814814814803,123.11111111111101,0)" xlink:href="#aj"/><use transform="matrix(0.14814814814814803,0,0,0.14814814814814803,155.55555555555543,0)" xlink:href="#ab"/></g><path d="M110-194c64 0 96 36 96 99 0 64-35 99-97 99-61 0-95-36-95-99 0-62 34-99 96-99zm-1 164c35 0 45-28 45-65 0-40-10-65-43-65-34 0-45 26-45 65 0 36 10 65 43 65zM81-208v-5l45-51h45v8l-60 48H81" id="ap"/><g id="K"><use transform="matrix(0.14814814814814803,0,0,0.14814814814814803,0,0)" xlink:href="#aa"/><use transform="matrix(0.14814814814814803,0,0,0.14814814814814803,38.37037037037034,0)" xlink:href="#ah"/><use transform="matrix(0.14814814814814803,0,0,0.14814814814814803,70.81481481481475,0)" xlink:href="#aj"/><use transform="matrix(0.14814814814814803,0,0,0.14814814814814803,103.25925925925918,0)" xlink:href="#af"/><use transform="matrix(0.14814814814814803,0,0,0.14814814814814803,132.8888888888888,0)" xlink:href="#ad"/><use transform="matrix(0.14814814814814803,0,0,0.14814814814814803,162.51851851851842,0)" xlink:href="#am"/><use transform="matrix(0.14814814814814803,0,0,0.14814814814814803,194.96296296296285,0)" xlink:href="#af"/><use transform="matrix(0.14814814814814803,0,0,0.14814814814814803,224.59259259259244,0)" xlink:href="#ai"/><use transform="matrix(0.14814814814814803,0,0,0.14814814814814803,239.40740740740725,0)" xlink:href="#ap"/><use transform="matrix(0.14814814814814803,0,0,0.14814814814814803,271.8518518518517,0)" xlink:href="#aj"/></g><path d="M24 0v-248h52V0H24" id="aq"/><path d="M84 4C32 4 15-41 15-95c0-55 18-99 73-99 29 0 47 12 58 34l2-30h48l-1 265h-49V-32C136-9 114 4 84 4zm21-34c32 0 41-29 41-66 0-36-9-64-40-64-33 0-39 30-40 65 0 43 13 65 39 65" id="ar"/><g id="L"><use transform="matrix(0.14814814814814803,0,0,0.14814814814814803,0,0)" xlink:href="#aq"/><use transform="matrix(0.14814814814814803,0,0,0.14814814814814803,14.814814814814802,0)" xlink:href="#ar"/><use transform="matrix(0.14814814814814803,0,0,0.14814814814814803,47.259259259259224,0)" xlink:href="#al"/><use transform="matrix(0.14814814814814803,0,0,0.14814814814814803,79.70370370370364,0)" xlink:href="#ai"/><use transform="matrix(0.14814814814814803,0,0,0.14814814814814803,94.51851851851845,0)" xlink:href="#ar"/><use transform="matrix(0.14814814814814803,0,0,0.14814814814814803,126.96296296296288,0)" xlink:href="#al"/><use transform="matrix(0.14814814814814803,0,0,0.14814814814814803,159.4074074074073,0)" xlink:href="#ad"/></g></defs></g></svg>